<svg xmlns="http://www.w3.org/2000/svg" xmlns:xlink="http://www.w3.org/1999/xlink" width="160" height="160" viewBox="0 0 160 160"><rect width="100%" height="100%" fill="#DDDDDD"/><path d="M36.17 86.19L39.16 86.19L39.16 88.31L29.96 88.31L29.96 86.19L33.33 86.19L33.33 76.49Q33.33 75.92 33.36 75.31L33.36 75.31L30.97 77.31Q30.76 77.47 30.56 77.51Q30.36 77.55 30.18 77.52Q30.00 77.48 29.87 77.40Q29.73 77.31 29.66 77.21L29.66 77.21L28.76 75.97L33.83 71.66L36.17 71.66L36.17 86.19ZM51.53 71.69L46.60 77.72L46.02 78.44Q46.51 78.19 47.06 78.06Q47.62 77.93 48.27 77.93L48.27 77.93Q49.21 77.93 50.10 78.24Q50.99 78.55 51.67 79.18Q52.35 79.80 52.76 80.74Q53.18 81.67 53.18 82.91L53.18 82.91Q53.18 84.07 52.75 85.09Q52.33 86.11 51.55 86.87Q50.78 87.62 49.70 88.06Q48.61 88.50 47.30 88.50L47.30 88.50Q45.97 88.50 44.91 88.07Q43.85 87.65 43.10 86.88Q42.35 86.12 41.96 85.04Q41.56 83.97 41.56 82.66L41.56 82.66Q41.56 81.48 42.04 80.25Q42.52 79.01 43.52 77.68L43.52 77.68L47.48 72.35Q47.69 72.08 48.09 71.88Q48.48 71.69 49.00 71.69L49.00 71.69L51.53 71.69ZM47.24 86.18L47.24 86.18Q47.92 86.18 48.49 85.95Q49.06 85.72 49.47 85.30Q49.88 84.89 50.11 84.33Q50.34 83.77 50.34 83.12L50.34 83.12Q50.34 82.40 50.12 81.83Q49.90 81.27 49.50 80.87Q49.09 80.47 48.53 80.26Q47.97 80.06 47.29 80.06L47.29 80.06Q46.61 80.06 46.06 80.29Q45.51 80.52 45.11 80.93Q44.72 81.33 44.51 81.89Q44.29 82.45 44.29 83.09L44.29 83.09Q44.29 83.78 44.48 84.35Q44.67 84.92 45.04 85.32Q45.41 85.73 45.97 85.95Q46.52 86.18 47.24 86.18ZM66.70 80L66.70 80Q66.70 82.17 66.23 83.78Q65.77 85.38 64.95 86.43Q64.12 87.47 63.00 87.99Q61.88 88.50 60.58 88.50L60.58 88.50Q59.28 88.50 58.17 87.99Q57.06 87.47 56.25 86.43Q55.43 85.38 54.97 83.78Q54.51 82.17 54.51 80L54.51 80Q54.51 77.81 54.97 76.22Q55.43 74.62 56.25 73.57Q57.06 72.52 58.17 72.01Q59.28 71.50 60.58 71.50L60.58 71.50Q61.88 71.50 63.00 72.01Q64.12 72.52 64.95 73.57Q65.77 74.62 66.23 76.22Q66.70 77.81 66.70 80ZM63.77 80L63.77 80Q63.77 78.19 63.50 77.01Q63.24 75.83 62.80 75.12Q62.35 74.42 61.78 74.14Q61.20 73.86 60.58 73.86L60.58 73.86Q59.97 73.86 59.40 74.14Q58.83 74.42 58.40 75.12Q57.96 75.83 57.70 77.01Q57.44 78.19 57.44 80L57.44 80Q57.44 81.81 57.70 82.99Q57.96 84.17 58.40 84.88Q58.83 85.58 59.40 85.86Q59.97 86.14 60.58 86.14L60.58 86.14Q61.20 86.14 61.78 85.86Q62.35 85.58 62.80 84.88Q63.24 84.17 63.50 82.99Q63.77 81.81 63.77 80ZM84.96 84.51L83.46 85.99L79.56 82.09L75.62 86.01L74.12 84.53L78.05 80.59L74.30 76.84L75.80 75.34L79.55 79.09L83.27 75.37L84.79 76.86L81.05 80.60L84.96 84.51ZM100.71 86.19L103.70 86.19L103.70 88.31L94.50 88.31L94.50 86.19L97.87 86.19L97.87 76.49Q97.87 75.92 97.90 75.31L97.90 75.31L95.51 77.31Q95.30 77.47 95.10 77.51Q94.90 77.55 94.72 77.52Q94.54 77.48 94.40 77.40Q94.27 77.31 94.20 77.21L94.20 77.21L93.30 75.97L98.37 71.66L100.71 71.66L100.71 86.19ZM116.07 71.69L111.14 77.72L110.56 78.44Q111.04 78.19 111.60 78.06Q112.16 77.93 112.80 77.93L112.80 77.93Q113.75 77.93 114.64 78.24Q115.53 78.55 116.21 79.18Q116.89 79.80 117.30 80.74Q117.71 81.67 117.71 82.91L117.71 82.91Q117.71 84.07 117.29 85.09Q116.86 86.11 116.09 86.87Q115.32 87.62 114.24 88.06Q113.15 88.50 111.84 88.50L111.84 88.50Q110.50 88.50 109.45 88.07Q108.39 87.65 107.64 86.88Q106.89 86.12 106.50 85.04Q106.10 83.97 106.10 82.66L106.10 82.66Q106.10 81.48 106.58 80.25Q107.05 79.01 108.05 77.68L108.05 77.68L112.02 72.35Q112.23 72.08 112.63 71.88Q113.02 71.69 113.54 71.69L113.54 71.69L116.07 71.69ZM111.78 86.18L111.78 86.18Q112.46 86.18 113.03 85.95Q113.60 85.72 114.01 85.30Q114.41 84.89 114.64 84.33Q114.87 83.77 114.87 83.12L114.87 83.12Q114.87 82.40 114.66 81.83Q114.44 81.27 114.03 80.87Q113.63 80.47 113.07 80.26Q112.50 80.06 111.83 80.06L111.83 80.06Q111.15 80.06 110.60 80.29Q110.04 80.52 109.65 80.93Q109.26 81.33 109.04 81.89Q108.82 82.45 108.82 83.09L108.82 83.09Q108.82 83.78 109.01 84.35Q109.20 84.92 109.58 85.32Q109.95 85.73 110.50 85.95Q111.06 86.18 111.78 86.18ZM131.24 80L131.24 80Q131.24 82.17 130.77 83.78Q130.31 85.38 129.48 86.43Q128.66 87.47 127.54 87.99Q126.42 88.50 125.12 88.50L125.12 88.50Q123.82 88.50 122.71 87.99Q121.60 87.47 120.78 86.43Q119.97 85.38 119.51 83.78Q119.05 82.17 119.05 80L119.05 80Q119.05 77.81 119.51 76.22Q119.97 74.62 120.78 73.57Q121.60 72.52 122.71 72.01Q123.82 71.50 125.12 71.50L125.12 71.50Q126.42 71.50 127.54 72.01Q128.66 72.52 129.48 73.57Q130.31 74.62 130.77 76.22Q131.24 77.81 131.24 80ZM128.31 80L128.31 80Q128.31 78.19 128.04 77.01Q127.78 75.83 127.33 75.12Q126.89 74.42 126.32 74.14Q125.74 73.86 125.12 73.86L125.12 73.86Q124.51 73.86 123.94 74.14Q123.37 74.42 122.94 75.12Q122.50 75.83 122.24 77.01Q121.98 78.19 121.98 80L121.98 80Q121.98 81.81 122.24 82.99Q122.50 84.17 122.94 84.88Q123.37 85.58 123.94 85.86Q124.51 86.14 125.12 86.14L125.12 86.14Q125.74 86.14 126.32 85.86Q126.89 85.58 127.33 84.88Q127.78 84.17 128.04 82.99Q128.31 81.81 128.31 80Z" fill="#999999"/></svg>